<?xml version="1.0" encoding="utf-8"?>
<!-- Generator: Adobe Illustrator 18.1.0, SVG Export Plug-In . SVG Version: 6.00 Build 0)  -->
<!DOCTYPE svg PUBLIC "-//W3C//DTD SVG 1.0//EN" "http://www.w3.org/TR/2001/REC-SVG-20010904/DTD/svg10.dtd">
<svg version="1.0" id="default" xmlns="http://www.w3.org/2000/svg" xmlns:xlink="http://www.w3.org/1999/xlink" x="0px" y="0px"
	 width="26px" height="29px" viewBox="0 0 26 29" enable-background="new 0 0 26 29" xml:space="preserve">
<g>
	<path d="M13,28.5c-11.6,0-12.5-5.1-12.5-6.6V0.5h11.2L13,3.4l1.3-2.9h11.2v21.4C25.5,23.4,24.6,28.5,13,28.5z"/>
	<path fill="#FFFFFF" d="M25,1v20.9c0,1.4-0.8,6.1-12,6.1C1.8,28,1,23.3,1,21.9V1h10.4L13,4.6L14.6,1H25 M26,0h-1H14.6h-0.7
		l-0.3,0.6L13,2.1l-0.7-1.5L12.1,0h-0.7H1H0v1v20.9C0,23.6,0.9,29,13,29s13-5.4,13-7.1V1V0L26,0z"/>
</g>
<path fill="#F1B82D" d="M16.6,19.9v-2c0-0.4-1.1-0.7-1.6-1V15h0.8H22v1.9c-0.5,0.3-1,0.6-1,1v1.8c0,1.3,0.3,5.3-8,5.3
	c-8.4,0-8-4-8-5.3v-1.8c0-0.4-0.5-0.7-1-1V15h7v0.4v1.4c-0.5,0.3-1.6,0.6-1.6,1v2c0,0.3-0.1,2.1,3.6,2.1S16.6,20.3,16.6,19.9z"/>
<path fill="#F1B82D" d="M13,9.4L16,4h6v1.4c-0.5,0.3-1,0.6-1,1v4.3c0,0.4,0.5,0.7,1,1V13h-6v-1.3c0.5-0.3,1.1-0.6,1.1-1V7.4L13.7,13
	h-1.4L8.9,7.4v3.3c0,0.4,0.6,0.7,1.1,1V13H4v-1.3c0.5-0.3,1-0.6,1-1V6.4c0-0.4-0.5-0.7-1-1V4h6L13,9.4"/>
<g>
</g>
<g>
</g>
<g>
</g>
<g>
</g>
<g>
</g>
<g>
</g>
<g>
</g>
<g>
</g>
<g>
</g>
<g>
</g>
<g>
</g>
<g>
</g>
<g>
</g>
<g>
</g>
<g>
</g>
</svg>
