<svg id="Layer_1" data-name="Layer 1" xmlns="http://www.w3.org/2000/svg" viewBox="0 0 233.86 160.96"><defs><style>.cls-1,.cls-2,.cls-3{fill:#272525;}.cls-1,.cls-2,.cls-4,.cls-5{stroke:#272525;stroke-miterlimit:3.86;}.cls-1,.cls-5{stroke-width:0.3px;}.cls-2,.cls-4{stroke-width:0.25px;}.cls-4,.cls-5{fill:none;}.cls-6{fill:#a81933;stroke:#a81933;}</style></defs><title>Logo</title><path class="cls-1" d="M55.34,85.1c0,1.91,0,3.48.1,4.31a1,1,0,0,0,.77,1.09,8,8,0,0,0,.9.08,0.13,0.13,0,0,1,.16.12c0,0.1-.1.16-0.32,0.16-1.09,0-2.35-.06-2.45-0.06s-1.35.06-1.95,0.06c-0.22,0-.32,0-0.32-0.16s0-.12.16-0.12A2.86,2.86,0,0,0,53,90.51a1.06,1.06,0,0,0,.58-1.09c0.1-.84.1-2.41,0.1-4.31V76.69l-2.94,0c-1.23,0-1.71.16-2,.64a3.52,3.52,0,0,0-.34.61,0.23,0.23,0,0,1-.2.2c-0.06,0-.1-0.06-0.1-0.18s0.4-1.91.44-2.07a0.69,0.69,0,0,1,.2-0.38,3.83,3.83,0,0,0,.88.24c0.58,0.06,1.33.1,1.57,0.1H58.6A10.58,10.58,0,0,0,60,75.8a4.53,4.53,0,0,1,.56-0.1c0.1,0,.1.12,0.1,0.24,0,0.6-.06,2-0.06,2.19s-0.06.26-.14,0.26-0.14-.06-0.16-0.34l0-.22c-0.08-.6-0.54-1.05-2.45-1.09l-2.5,0V85.1h0Z" transform="translate(-5.3 -6.48)"/><path class="cls-1" d="M78.52,85.1c0,1.91,0,3.48.1,4.31a1,1,0,0,0,.78,1.09,8,8,0,0,0,.9.08,0.13,0.13,0,0,1,.16.12c0,0.1-.1.16-0.32,0.16-1.09,0-2.35-.06-2.44-0.06s-1.35.06-1.95,0.06c-0.22,0-.32,0-0.32-0.16a0.13,0.13,0,0,1,.15-0.12,2.86,2.86,0,0,0,.6-0.08,1.06,1.06,0,0,0,.58-1.09c0.1-.84.1-2.41,0.1-4.31V83a0.11,0.11,0,0,0-.12-0.12H68.3a0.11,0.11,0,0,0-.12.12V85.1c0,1.91,0,3.48.1,4.31a1,1,0,0,0,.77,1.09,7.9,7.9,0,0,0,.9.08,0.13,0.13,0,0,1,.16.12c0,0.1-.1.16-0.32,0.16-1.09,0-2.34-.06-2.45-0.06s-1.35.06-1.95,0.06c-0.22,0-.32,0-0.32-0.16a0.13,0.13,0,0,1,.16-0.12,2.82,2.82,0,0,0,.59-0.08,1.06,1.06,0,0,0,.58-1.09c0.1-.84.1-2.41,0.1-4.31V81.6c0-3.1,0-3.66,0-4.29a1,1,0,0,0-.86-1.14,4,4,0,0,0-.68-0.06A0.14,0.14,0,0,1,64.79,76c0-.12.1-0.16,0.31-0.16,0.9,0,2.15.06,2.25,0.06s1.35-.06,1.95-0.06c0.22,0,.32,0,0.32.16a0.14,0.14,0,0,1-.16.12,3.22,3.22,0,0,0-.5.06,1,1,0,0,0-.74,1.14c0,0.63,0,1.19,0,4.29V82a0.11,0.11,0,0,0,.12.12h8.43A0.1,0.1,0,0,0,76.85,82V81.6c0-3.1,0-3.66,0-4.29A1,1,0,0,0,76,76.17a4,4,0,0,0-.68-0.06A0.14,0.14,0,0,1,75.12,76c0-.12.1-0.16,0.32-0.16,0.89,0,2.15.06,2.25,0.06s1.35-.06,1.95-0.06c0.22,0,.32,0,0.32.16a0.14,0.14,0,0,1-.16.12,3.12,3.12,0,0,0-.49.06,1,1,0,0,0-.74,1.14c0,0.63,0,1.19,0,4.29v3.5h0Z" transform="translate(-5.3 -6.48)"/><path class="cls-1" d="M87.27,81.6c0-3.1,0-3.66,0-4.29a1,1,0,0,0-.85-1.14,4,4,0,0,0-.68-0.06A0.14,0.14,0,0,1,85.54,76c0-.12.1-0.16,0.32-0.16,0.9,0,2.15.06,2.25,0.06s4.1,0,4.55,0a5.23,5.23,0,0,0,.85-0.1,1.57,1.57,0,0,1,.28-0.1c0.06,0,.08.08,0.08,0.18s-0.1.38-.16,0.94c0,0.2-.06,1.07-0.1,1.31a0.23,0.23,0,0,1-.14.22c-0.12,0-.16-0.1-0.16-0.26a2.1,2.1,0,0,0-.12-0.71c-0.14-.32-0.34-0.56-1.41-0.68-0.34,0-2.5-.06-2.72-0.06s-0.12.06-.12,0.2V82.3c0,0.14,0,.2.12,0.2,0.26,0,2.71,0,3.16,0a1.32,1.32,0,0,0,.93-0.28,0.61,0.61,0,0,1,.3-0.26c0.06,0,.1,0,0.1.16s-0.1.46-.15,1.11c0,0.4-.08,1.13-0.08,1.27s0,0.37-.14.37A0.15,0.15,0,0,1,93,84.66,2,2,0,0,0,93,84a1,1,0,0,0-1-.7c-0.53-.06-2.5-0.1-2.84-0.1a0.13,0.13,0,0,0-.14.14V85.1c0,0.68,0,3,0,3.4,0.06,1.38.35,1.63,2.3,1.63a5.65,5.65,0,0,0,1.91-.22A1.58,1.58,0,0,0,94,88.48c0-.21.08-0.3,0.18-0.3s0.12,0.16.12,0.3a19.36,19.36,0,0,1-.26,1.93c-0.14.52-.3,0.52-1.07,0.52-3,0-4.33-.12-4.91-0.12,0,0-.38,0-0.79,0s-0.86,0-1.15,0-0.32,0-.32-0.16A0.13,0.13,0,0,1,86,90.59a2.87,2.87,0,0,0,.6-0.08,1.06,1.06,0,0,0,.58-1.09c0.1-.84.1-2.41,0.1-4.31V81.6h0Z" transform="translate(-5.3 -6.48)"/><path class="cls-2" d="M8.16,114.27c0-4.89,0-5.77-.06-6.77s-0.31-1.57-1.35-1.79a5.87,5.87,0,0,0-1.06-.09,0.22,0.22,0,0,1-.25-0.19c0-.19.15-0.25,0.5-0.25,1.41,0,3.32.09,3.61,0.09s2.16-.09,3.1-0.09c0.34,0,.5.06,0.5,0.25a0.22,0.22,0,0,1-.25.19,4.67,4.67,0,0,0-.78.09c-0.85.13-1.1,0.69-1.16,1.79s-0.06,1.88-.06,6.77v4.39c0,4.51,1,6.46,2.35,7.75A6.14,6.14,0,0,0,18,128.13a6.57,6.57,0,0,0,4.92-2.26c1.44-1.79,1.82-4.45,1.82-7.68v-3.92c0-4.89,0-5.77-.06-6.77s-0.31-1.57-1.35-1.79a5.88,5.88,0,0,0-1.07-.09,0.22,0.22,0,0,1-.25-0.19c0-.19.16-0.25,0.5-0.25,1.41,0,3.14.09,3.32,0.09s1.69-.09,2.63-0.09c0.34,0,.5.06,0.5,0.25a0.22,0.22,0,0,1-.25.19,2.79,2.79,0,0,0-.78.09c-0.85.16-1.09,0.69-1.16,1.79s-0.06,1.88-.06,6.77v3.36c0,3.39-.38,7.15-2.88,9.38a9.21,9.21,0,0,1-6.46,2.32,9.65,9.65,0,0,1-6.46-2.23c-1.53-1.47-2.73-3.67-2.73-8.25v-4.58h0Z" transform="translate(-5.3 -6.48)"/><path class="cls-2" d="M39.48,124.62c0.06,2.57.38,3.39,1.22,3.64a6.76,6.76,0,0,0,1.57.19,0.2,0.2,0,0,1,.25.19c0,0.19-.18.25-0.56,0.25-1.79,0-3-.09-3.32-0.09s-1.6.09-3,.09c-0.31,0-.5,0-0.5-0.25a0.21,0.21,0,0,1,.25-0.19,4.44,4.44,0,0,0,1.29-.19c0.78-.22.94-1.13,0.94-4l0-18c0-1.22.09-1.57,0.34-1.57a3.82,3.82,0,0,1,1.1,1c0.47,0.53,5.14,5.58,10,10.75,3.1,3.33,6.53,7.15,7.53,8.18l-0.34-15.93c0-2-.25-2.73-1.22-3a8.19,8.19,0,0,0-1.53-.16c-0.22,0-.25-0.1-0.25-0.22s0.25-.22.62-0.22c1.41,0,2.92.09,3.26,0.09s1.38-.09,2.67-0.09c0.34,0,.57,0,0.57.22a0.29,0.29,0,0,1-.35.22,2.82,2.82,0,0,0-.75.09c-1,.22-1.16.91-1.16,2.79L58,126.88c0,2.07-.06,2.23-0.28,2.23s-0.63-.34-2.29-2c-0.34-.31-4.86-4.93-8.19-8.5-3.64-3.92-7.18-7.87-8.18-9l0.41,15h0Z" transform="translate(-5.3 -6.48)"/><path class="cls-2" d="M73.6,119.79c0,3,0,5.49.16,6.81,0.09,0.91.28,1.6,1.22,1.72a12.36,12.36,0,0,0,1.41.13,0.21,0.21,0,0,1,.25.19c0,0.16-.16.25-0.5,0.25-1.72,0-3.7-.09-3.86-0.09s-2.13.09-3.07,0.09c-0.34,0-.5-0.06-0.5-0.25a0.2,0.2,0,0,1,.25-0.19,4.45,4.45,0,0,0,.94-0.13c0.63-.12.78-0.81,0.91-1.72,0.16-1.32.16-3.79,0.16-6.81v-5.52c0-4.89,0-5.77-.06-6.77s-0.37-1.6-1.07-1.76a4,4,0,0,0-1-.12,0.22,0.22,0,0,1-.25-0.19c0-.19.16-0.25,0.5-0.25,1,0,3,.09,3.17.09s2.13-.09,3.08-0.09c0.34,0,.5.06,0.5,0.25a0.22,0.22,0,0,1-.25.19,4.61,4.61,0,0,0-.78.09c-0.85.16-1.1,0.69-1.16,1.79s-0.06,1.88-.06,6.77v5.52h0Z" transform="translate(-5.3 -6.48)"/><path class="cls-2" d="M94.2,125.06c1.82-4.2,6-15.14,6.71-17.4a4.66,4.66,0,0,0,.28-1.19,0.78,0.78,0,0,0-.41-0.72,4,4,0,0,0-1.19-.12c-0.19,0-.35,0-0.35-0.19s0.19-.25.69-0.25c1.25,0,2.7.09,3.07,0.09,0.19,0,1.54-.09,2.45-0.09,0.34,0,.53.06,0.53,0.22s-0.13.22-.38,0.22a2.83,2.83,0,0,0-1.5.38c-0.41.28-.88,0.82-1.73,2.95-0.34.88-1.91,4.64-3.51,8.5-1.91,4.58-3.32,8-4,9.5-0.88,1.88-1,2.39-1.32,2.39s-0.53-.44-1.13-1.95L84.7,108.16c-0.69-1.76-1.16-2.1-2.26-2.41a4.91,4.91,0,0,0-1.19-.12A0.21,0.21,0,0,1,81,105.4c0-.19.32-0.22,0.82-0.22,1.5,0,3.29.09,3.67,0.09s1.73-.09,2.92-0.09c0.56,0,.85.06,0.85,0.22s-0.09.22-.31,0.22a3.61,3.61,0,0,0-1.19.16,0.63,0.63,0,0,0-.41.63,12.17,12.17,0,0,0,.85,2.6l6,16.05h0Z" transform="translate(-5.3 -6.48)"/><path class="cls-2" d="M113.29,114.27c0-4.89,0-5.77-.06-6.77s-0.31-1.57-1.35-1.79a5.89,5.89,0,0,0-1.07-.09,0.22,0.22,0,0,1-.25-0.19c0-.19.16-0.25,0.5-0.25,1.41,0,3.38.09,3.54,0.09s6.46,0,7.18,0a7.92,7.92,0,0,0,1.35-.16,2.47,2.47,0,0,1,.44-0.16c0.09,0,.12.13,0.12,0.28s-0.15.6-.25,1.48c0,0.31-.1,1.69-0.16,2.07a0.36,0.36,0,0,1-.21.35c-0.19,0-.25-0.16-0.25-0.41a3.36,3.36,0,0,0-.18-1.13c-0.22-.5-0.54-0.87-2.23-1.06-0.53-.06-4-0.09-4.3-0.09-0.12,0-.18.09-0.18,0.31v8.65c0,0.22,0,.32.18,0.32,0.41,0,4.27,0,5-.06a2.1,2.1,0,0,0,1.47-.44,1,1,0,0,1,.47-0.41c0.1,0,.16.07,0.16,0.25s-0.16.73-.25,1.76c-0.06.63-.12,1.79-0.12,2s0,0.6-.22.6a0.23,0.23,0,0,1-.22-0.28,3.13,3.13,0,0,0-.13-1,1.55,1.55,0,0,0-1.63-1.1c-0.85-.09-3.95-0.16-4.48-0.16a0.2,0.2,0,0,0-.22.22v2.76c0,1.07,0,4.71,0,5.37,0.09,2.16.56,2.57,3.63,2.57a9,9,0,0,0,3-.35c0.82-.34,1.19-1,1.41-2.26,0.07-.35.13-0.47,0.28-0.47s0.19,0.25.19,0.47a30.38,30.38,0,0,1-.41,3c-0.22.81-.47,0.81-1.69,0.81-4.74,0-6.84-.19-7.75-0.19-0.06,0-.6,0-1.25,0s-1.35.06-1.82,0.06-0.5-.06-0.5-0.25a0.2,0.2,0,0,1,.25-0.19,4.4,4.4,0,0,0,.94-0.13c0.63-.12.79-0.81,0.91-1.72,0.16-1.32.16-3.79,0.16-6.81v-5.52h0Z" transform="translate(-5.3 -6.48)"/><path class="cls-3" d="M137.56,106.74a0.38,0.38,0,0,1,.25-0.37,9.49,9.49,0,0,1,2.1-.19c3.36,0,5.43,2.35,5.43,6.27,0,2.39-.82,4.08-1.92,4.83a4,4,0,0,1-2.35.6,8.68,8.68,0,0,1-3.29-.5,0.42,0.42,0,0,1-.22-0.38V106.74h0Zm-2.51,13c0,3,0,5.49-.16,6.81-0.12.91-.28,1.6-0.91,1.72a4.42,4.42,0,0,1-.94.13,0.2,0.2,0,0,0-.25.19c0,0.19.16,0.25,0.5,0.25,0.94,0,2.92-.09,2.95-0.09s2.13,0.09,3.86.09c0.34,0,.5-0.09.5-0.25a0.21,0.21,0,0,0-.25-0.19,12.28,12.28,0,0,1-1.41-.13c-0.94-.12-1.13-0.81-1.23-1.72-0.15-1.32-.15-3.79-0.15-6.81V119a0.21,0.21,0,0,1,.22-0.25l3.86,0.06a0.5,0.5,0,0,1,.41.19c0.63,0.82,2.11,2.92,3.42,4.64,1.79,2.35,2.88,3.89,4.23,4.61a6.38,6.38,0,0,0,3.35.59h2.23c0.56,0,.75-0.06.75-0.25a0.26,0.26,0,0,0-.28-0.19,7.73,7.73,0,0,1-1.23-.09,6.48,6.48,0,0,1-3.82-2.26c-1.82-1.94-4-4.73-6.52-8,2.82-2.6,3.79-4.92,3.79-7.24a5.49,5.49,0,0,0-2.16-4.26,9.63,9.63,0,0,0-5.74-1.38c-1,0-3.35.09-3.7,0.09-0.16,0-2.13-.09-3.55-0.09-0.35,0-.5.06-0.5,0.25a0.22,0.22,0,0,0,.25.19,5.94,5.94,0,0,1,1.07.09c1,0.22,1.29.72,1.35,1.79s0.06,1.88.06,6.77v5.52h0Z" transform="translate(-5.3 -6.48)"/><path class="cls-4" d="M137.56,106.74a0.38,0.38,0,0,1,.25-0.37,9.49,9.49,0,0,1,2.1-.19c3.36,0,5.43,2.35,5.43,6.27,0,2.39-.82,4.08-1.92,4.83a4,4,0,0,1-2.35.6,8.68,8.68,0,0,1-3.29-.5,0.42,0.42,0,0,1-.22-0.38V106.74h0Zm-2.51,13c0,3,0,5.49-.16,6.81-0.12.91-.28,1.6-0.91,1.72a4.42,4.42,0,0,1-.94.13,0.2,0.2,0,0,0-.25.19c0,0.19.16,0.25,0.5,0.25,0.94,0,2.92-.09,2.95-0.09s2.13,0.09,3.86.09c0.34,0,.5-0.09.5-0.25a0.21,0.21,0,0,0-.25-0.19,12.28,12.28,0,0,1-1.41-.13c-0.94-.12-1.13-0.81-1.23-1.72-0.15-1.32-.15-3.79-0.15-6.81V119a0.21,0.21,0,0,1,.22-0.25l3.86,0.06a0.5,0.5,0,0,1,.41.19c0.63,0.82,2.11,2.92,3.42,4.64,1.79,2.35,2.88,3.89,4.23,4.61a6.38,6.38,0,0,0,3.35.59h2.23c0.56,0,.75-0.06.75-0.25a0.26,0.26,0,0,0-.28-0.19,7.73,7.73,0,0,1-1.23-.09,6.48,6.48,0,0,1-3.82-2.26c-1.82-1.94-4-4.73-6.52-8,2.82-2.6,3.79-4.92,3.79-7.24a5.49,5.49,0,0,0-2.16-4.26,9.63,9.63,0,0,0-5.74-1.38c-1,0-3.35.09-3.7,0.09-0.16,0-2.13-.09-3.55-0.09-0.35,0-.5.06-0.5,0.25a0.22,0.22,0,0,0,.25.19,5.94,5.94,0,0,1,1.07.09c1,0.22,1.29.72,1.35,1.79s0.06,1.88.06,6.77v5.52h0Z" transform="translate(-5.3 -6.48)"/><path class="cls-2" d="M159,128.48c-0.44-.22-0.47-0.34-0.47-1.19,0-1.57.12-2.83,0.16-3.32,0-.35.09-0.5,0.25-0.5s0.22,0.09.22,0.35a5.54,5.54,0,0,0,.09,1.16c0.47,2.32,2.54,3.2,4.64,3.2a4.19,4.19,0,0,0,4.48-4.17c0-2.16-.91-3.42-3.61-5.64l-1.41-1.16c-3.32-2.73-4.08-4.67-4.08-6.8,0-3.36,2.51-5.65,6.49-5.65a12.12,12.12,0,0,1,2.92.32,5.12,5.12,0,0,0,1.09.15c0.25,0,.32.06,0.32,0.22s-0.12,1.19-.12,3.32c0,0.5-.07.72-0.22,0.72s-0.22-.16-0.25-0.41a5.43,5.43,0,0,0-.41-1.57c-0.19-.34-1-1.66-3.91-1.66a3.57,3.57,0,0,0-3.86,3.64c0,1.79.88,2.85,3.83,5.27l0.88,0.69c3.7,2.92,4.58,4.86,4.58,7.37A6.49,6.49,0,0,1,168,128a8.24,8.24,0,0,1-4.73,1.32,9.52,9.52,0,0,1-4.2-.85h0Z" transform="translate(-5.3 -6.48)"/><path class="cls-2" d="M184.17,119.79c0,3,0,5.49.16,6.81,0.09,0.91.28,1.6,1.22,1.72a12.32,12.32,0,0,0,1.41.13,0.2,0.2,0,0,1,.25.19c0,0.16-.16.25-0.5,0.25-1.73,0-3.7-.09-3.86-0.09s-2.13.09-3.07,0.09c-0.35,0-.5-0.06-0.5-0.25a0.2,0.2,0,0,1,.25-0.19,4.39,4.39,0,0,0,.94-0.13c0.63-.12.79-0.81,0.91-1.72,0.16-1.32.16-3.79,0.16-6.81v-5.52c0-4.89,0-5.77-.06-6.77s-0.38-1.6-1.06-1.76a4.07,4.07,0,0,0-1-.12,0.22,0.22,0,0,1-.25-0.19c0-.19.16-0.25,0.5-0.25,1,0,3,.09,3.17.09s2.13-.09,3.08-0.09c0.34,0,.5.06,0.5,0.25a0.22,0.22,0,0,1-.25.19,4.57,4.57,0,0,0-.78.09c-0.85.16-1.1,0.69-1.16,1.79s-0.06,1.88-.06,6.77v5.52h0Z" transform="translate(-5.3 -6.48)"/><path class="cls-2" d="M204.64,119.79c0,3,0,5.49.16,6.81,0.1,0.91.28,1.6,1.22,1.72a12.27,12.27,0,0,0,1.41.13,0.21,0.21,0,0,1,.26.19c0,0.16-.16.25-0.51,0.25-1.73,0-3.7-.09-3.86-0.09s-2.13.09-3.07,0.09c-0.35,0-.5-0.06-0.5-0.25a0.2,0.2,0,0,1,.25-0.19,4.44,4.44,0,0,0,.94-0.13c0.63-.12.78-0.81,0.91-1.72,0.16-1.32.16-3.79,0.16-6.81V106.53l-4.64.06c-1.95,0-2.7.25-3.2,1a5.72,5.72,0,0,0-.54,1,0.35,0.35,0,0,1-.31.31c-0.09,0-.15-0.1-0.15-0.29s0.62-3,.69-3.26a1.1,1.1,0,0,1,.31-0.59,5.73,5.73,0,0,0,1.38.38c0.9,0.09,2.1.16,2.48,0.16h11.76a16.25,16.25,0,0,0,2.23-.16,7.57,7.57,0,0,1,.88-0.16c0.16,0,.16.19,0.16,0.37,0,0.94-.09,3.11-0.09,3.45s-0.1.41-.22,0.41-0.22-.09-0.25-0.53l0-.34c-0.12-.94-0.85-1.66-3.86-1.73l-3.95-.06v13.26h0Z" transform="translate(-5.3 -6.48)"/><path class="cls-2" d="M226.43,120.76a6.67,6.67,0,0,0-.72-3.29c-0.22-.5-4.42-7.4-5.52-9a8.79,8.79,0,0,0-2.14-2.32,3,3,0,0,0-1.35-.5,0.26,0.26,0,0,1-.31-0.22c0-.13.12-0.22,0.4-0.22,0.6,0,3,.09,3.11.09s1.41-.09,2.64-0.09c0.34,0,.41.09,0.41,0.22a0.64,0.64,0,0,1-.47.28,0.63,0.63,0,0,0-.41.56,2.67,2.67,0,0,0,.41,1.22c0.5,0.91,5.2,9,5.77,9.91,0.6-1.32,4.57-8.19,5.2-9.22a3.06,3.06,0,0,0,.54-1.6,0.78,0.78,0,0,0-.51-0.88,0.52,0.52,0,0,1-.47-0.31c0-.12.19-0.19,0.5-0.19,0.81,0,1.82.09,2.07,0.09s2.45-.09,3-0.09c0.22,0,.41.06,0.41,0.19s-0.16.25-.41,0.25a3,3,0,0,0-1.44.44,6,6,0,0,0-1.66,1.6,98.07,98.07,0,0,0-6,10,7.51,7.51,0,0,0-.47,3.14v2.69c0,0.5,0,1.82.09,3.14a1.53,1.53,0,0,0,1.28,1.72,12.39,12.39,0,0,0,1.41.13,0.21,0.21,0,0,1,.26.19c0,0.16-.16.25-0.51,0.25-1.73,0-3.69-.09-3.86-0.09s-2.13.09-3.07,0.09c-0.35,0-.5-0.06-0.5-0.25a0.21,0.21,0,0,1,.25-0.19,4.47,4.47,0,0,0,.94-0.13c0.63-.12.91-0.81,1-1.72,0.09-1.32.09-2.63,0.09-3.14v-2.69h0Z" transform="translate(-5.3 -6.48)"/><path class="cls-3" d="M52.49,150.3c0-4.35,2.49-6.54,5.81-6.54,3.14,0,6,2.56,6,7.34,0,5.78-3.7,6.82-5.49,6.82-3.58,0-6.36-3-6.36-7.62h0Zm-1.89.56c0,3.58,2.26,7.81,7.71,7.81a7.8,7.8,0,0,0,7.93-8.13c0-4.63-3.34-7.46-7.81-7.46a7.69,7.69,0,0,0-7.83,7.77h0Z" transform="translate(-5.3 -6.48)"/><path class="cls-5" d="M52.49,150.3c0-4.35,2.49-6.54,5.81-6.54,3.14,0,6,2.56,6,7.34,0,5.78-3.7,6.82-5.49,6.82-3.58,0-6.36-3-6.36-7.62h0Zm-1.89.56c0,3.58,2.26,7.81,7.71,7.81a7.8,7.8,0,0,0,7.93-8.13c0-4.63-3.34-7.46-7.81-7.46a7.69,7.69,0,0,0-7.83,7.77h0Z" transform="translate(-5.3 -6.48)"/><path class="cls-1" d="M72.13,149.13c0-3.1,0-3.66,0-4.3a1,1,0,0,0-.85-1.13,3.82,3.82,0,0,0-.68-0.06,0.14,0.14,0,0,1-.16-0.12c0-.12.1-0.16,0.32-0.16,0.9,0,2.15.06,2.25,0.06,0.4,0,4.43,0,4.89,0a4.36,4.36,0,0,0,.87-0.08,1.7,1.7,0,0,1,.28-0.12,0.15,0.15,0,0,1,.12.18c0,0.14-.1.38-0.16,0.94,0,0.2-.06,1.07-0.1,1.31a0.22,0.22,0,0,1-.16.22c-0.1,0-.14-0.1-0.14-0.24a2.14,2.14,0,0,0-.18-0.75,1.52,1.52,0,0,0-1.35-.64L74,144.16a0.17,0.17,0,0,0-.18.21v5.49c0,0.12,0,.18.14,0.18l2.54,0c0.34,0,.62,0,0.9,0a1.07,1.07,0,0,0,.91-0.36,0.38,0.38,0,0,1,.22-0.2c0.08,0,.1.06,0.1,0.16s-0.1.46-.16,1.11c0,0.4-.08,1.19-0.08,1.33s0,0.38-.14.38a0.15,0.15,0,0,1-.14-0.18,3.2,3.2,0,0,0-.12-0.71,1.2,1.2,0,0,0-1-.71c-0.5-.06-2.67-0.06-3-0.06-0.1,0-.14,0-0.14.18v1.69c0,1.91,0,3.48.1,4.32a1,1,0,0,0,.78,1.09c0.28,0,.72.08,0.89,0.08a0.13,0.13,0,0,1,.16.12c0,0.1-.1.16-0.32,0.16-1.09,0-2.35-.06-2.44-0.06s-1.35.06-1.95,0.06c-0.22,0-.32,0-0.32-0.16s0-.12.16-0.12a3.08,3.08,0,0,0,.59-0.08,1.06,1.06,0,0,0,.58-1.09c0.1-.84.1-2.41,0.1-4.32v-3.5h0Z" transform="translate(-5.3 -6.48)"/><path class="cls-2" d="M93.93,152.25c0-4.89,0-5.77-.06-6.78s-0.31-1.56-1.35-1.78a5.91,5.91,0,0,0-1.07-.1,0.22,0.22,0,0,1-.25-0.19c0-.19.15-0.25,0.5-0.25,1.41,0,3.33.09,3.61,0.09s2.17-.09,3.11-0.09c0.34,0,.5.06,0.5,0.25a0.22,0.22,0,0,1-.25.19,4.73,4.73,0,0,0-.79.1c-0.85.12-1.1,0.69-1.16,1.78s-0.07,1.88-.07,6.78v4.39c0,4.52,1,6.46,2.35,7.75a6.14,6.14,0,0,0,4.74,1.72,6.6,6.6,0,0,0,4.92-2.26c1.44-1.79,1.81-4.45,1.81-7.68v-3.92c0-4.89,0-5.77-.06-6.78s-0.31-1.56-1.35-1.78a5.89,5.89,0,0,0-1.06-.1,0.22,0.22,0,0,1-.26-0.19c0-.19.16-0.25,0.5-0.25,1.41,0,3.13.09,3.32,0.09s1.69-.09,2.63-0.09c0.34,0,.5.06,0.5,0.25a0.22,0.22,0,0,1-.25.19,2.68,2.68,0,0,0-.78.1c-0.85.16-1.1,0.69-1.16,1.78s-0.06,1.88-.06,6.78v3.36c0,3.38-.38,7.15-2.88,9.38a9.21,9.21,0,0,1-6.46,2.32,9.62,9.62,0,0,1-6.46-2.23c-1.53-1.47-2.73-3.67-2.73-8.25v-4.58h0Z" transform="translate(-5.3 -6.48)"/><path class="cls-2" d="M131.09,157.77c0,3,0,5.49.16,6.8,0.1,0.91.29,1.6,1.22,1.73,0.44,0.06,1.13.12,1.41,0.12a0.21,0.21,0,0,1,.25.19c0,0.16-.15.25-0.5,0.25-1.72,0-3.7-.09-3.86-0.09s-2.13.09-3.07,0.09c-0.35,0-.51-0.06-0.51-0.25a0.21,0.21,0,0,1,.26-0.19,5,5,0,0,0,.94-0.12c0.62-.12.78-0.82,0.91-1.73,0.16-1.31.16-3.79,0.16-6.8V144.51l-4.64.07c-1.94,0-2.7.25-3.2,1a5.55,5.55,0,0,0-.53,1,0.34,0.34,0,0,1-.31.31c-0.1,0-.16-0.09-0.16-0.28s0.63-3,.69-3.26a1,1,0,0,1,.31-0.6,5.85,5.85,0,0,0,1.38.38c0.91,0.1,2.1.16,2.48,0.16h11.76a16.36,16.36,0,0,0,2.23-.16,6.89,6.89,0,0,1,.88-0.15c0.16,0,.16.19,0.16,0.38,0,0.94-.1,3.1-0.1,3.45s-0.09.41-.22,0.41-0.22-.1-0.25-0.54l0-.34c-0.12-.94-0.85-1.66-3.86-1.72l-4-.07v13.27h0Z" transform="translate(-5.3 -6.48)"/><path class="cls-3" d="M149.09,156.49c-0.09,0-.16-0.06-0.09-0.22l2.75-8.47c0.16-.47.31-0.47,0.47,0l3,8.47c0,0.12,0,.22-0.13.22h-6Zm-4.39,6.93c-0.57,1.57-1.19,2.76-2.64,2.95a8.34,8.34,0,0,1-.91.06,0.24,0.24,0,0,0-.29.19c0,0.19.19,0.25,0.6,0.25,1.48,0,3.2-.09,3.54-0.09s1.69,0.09,2.45.09c0.28,0,.47-0.06.47-0.25s-0.1-.19-0.32-0.19H147.3a1.06,1.06,0,0,1-1.19-.91,6.51,6.51,0,0,1,.44-2.1l1.88-5.55a0.33,0.33,0,0,1,.32-0.25h6.73a0.28,0.28,0,0,1,.29.19l2.91,7.71c0.19,0.5,0,.79-0.19.85a0.24,0.24,0,0,0-.22.22c0,0.19.34,0.19,0.94,0.22,2.17,0.06,4.46.06,4.93,0.06s0.62-.06.62-0.25-0.12-.19-0.31-0.19a4,4,0,0,1-1.26-.19c-0.65-.18-1.57-0.69-2.7-3.48-1.91-4.77-6.83-17.72-7.3-18.91-0.38-1-.51-1.13-0.69-1.13s-0.32.19-.69,1.22l-7.12,19.47h0Z" transform="translate(-5.3 -6.48)"/><path class="cls-4" d="M149.09,156.49c-0.09,0-.16-0.06-0.09-0.22l2.75-8.47c0.16-.47.31-0.47,0.47,0l3,8.47c0,0.12,0,.22-0.13.22h-6Zm-4.39,6.93c-0.57,1.57-1.19,2.76-2.64,2.95a8.34,8.34,0,0,1-.91.06,0.24,0.24,0,0,0-.29.19c0,0.19.19,0.25,0.6,0.25,1.48,0,3.2-.09,3.54-0.09s1.69,0.09,2.45.09c0.28,0,.47-0.06.47-0.25s-0.1-.19-0.32-0.19H147.3a1.06,1.06,0,0,1-1.19-.91,6.51,6.51,0,0,1,.44-2.1l1.88-5.55a0.33,0.33,0,0,1,.32-0.25h6.73a0.28,0.28,0,0,1,.29.19l2.91,7.71c0.19,0.5,0,.79-0.19.85a0.24,0.24,0,0,0-.22.22c0,0.19.34,0.19,0.94,0.22,2.17,0.06,4.46.06,4.93,0.06s0.62-.06.62-0.25-0.12-.19-0.31-0.19a4,4,0,0,1-1.26-.19c-0.65-.18-1.57-0.69-2.7-3.48-1.91-4.77-6.83-17.72-7.3-18.91-0.38-1-.51-1.13-0.69-1.13s-0.32.19-.69,1.22l-7.12,19.47h0Z" transform="translate(-5.3 -6.48)"/><path class="cls-2" d="M190.82,157.77c0,3,0,5.49.16,6.8,0.09,0.91.28,1.6,1.22,1.73,0.44,0.06,1.13.12,1.41,0.12a0.2,0.2,0,0,1,.25.19c0,0.16-.15.25-0.5,0.25-1.73,0-3.7-.09-3.86-0.09s-2.13.09-3.07,0.09c-0.35,0-.51-0.06-0.51-0.25a0.2,0.2,0,0,1,.25-0.19,5.08,5.08,0,0,0,.95-0.12c0.63-.12.78-0.82,0.9-1.73,0.16-1.31.16-3.79,0.16-6.8v-3.29a0.18,0.18,0,0,0-.19-0.19H174.7a0.16,0.16,0,0,0-.19.19v3.29c0,3,0,5.49.16,6.8,0.09,0.91.28,1.6,1.22,1.73,0.44,0.06,1.13.12,1.41,0.12a0.2,0.2,0,0,1,.25.19c0,0.16-.16.25-0.5,0.25-1.72,0-3.7-.09-3.86-0.09s-2.13.09-3.07,0.09c-0.34,0-.5-0.06-0.5-0.25a0.2,0.2,0,0,1,.25-0.19,5.05,5.05,0,0,0,.94-0.12c0.63-.12.79-0.82,0.91-1.73,0.15-1.31.15-3.79,0.15-6.8v-5.52c0-4.89,0-5.77-.06-6.78s-0.31-1.56-1.35-1.78a5.89,5.89,0,0,0-1.06-.1,0.22,0.22,0,0,1-.25-0.19c0-.19.16-0.25,0.5-0.25,1.41,0,3.39.09,3.54,0.09s2.13-.09,3.08-0.09c0.35,0,.5.06,0.5,0.25a0.22,0.22,0,0,1-.25.19,4.74,4.74,0,0,0-.79.1c-0.85.16-1.09,0.69-1.16,1.78s-0.06,1.88-.06,6.78v0.66a0.17,0.17,0,0,0,.19.19H188a0.17,0.17,0,0,0,.19-0.19v-0.66c0-4.89,0-5.77-.07-6.78s-0.31-1.56-1.34-1.78a5.93,5.93,0,0,0-1.07-.1,0.22,0.22,0,0,1-.25-0.19c0-.19.16-0.25,0.51-0.25,1.41,0,3.39.09,3.54,0.09s2.13-.09,3.07-0.09c0.35,0,.5.06,0.5,0.25a0.22,0.22,0,0,1-.25.19,4.73,4.73,0,0,0-.78.1c-0.85.16-1.1,0.69-1.16,1.78s-0.06,1.88-.06,6.78v5.52h0Z" transform="translate(-5.3 -6.48)"/><polygon class="cls-6" points="93.58 0.5 93.58 25.77 102.01 25.77 102.01 67.8 118.86 84.54 160.77 84.54 177.62 67.8 177.62 25.77 186.05 25.77 186.05 0.5 144.03 0.5 144.03 25.77 152.46 25.77 152.46 59.26 127.18 59.26 127.18 25.77 135.6 25.77 135.6 0.5 93.58 0.5 93.58 0.5"/><path class="cls-3" d="M179.24,85.5a3.21,3.21,0,1,1-3.18,3.2,3.16,3.16,0,0,1,3.18-3.2h0Zm0,0.5a2.71,2.71,0,1,0,2.57,2.72A2.64,2.64,0,0,0,179.22,86h0Zm-0.6,4.56h-0.57V87a6.42,6.42,0,0,1,1-.09,1.86,1.86,0,0,1,1.11.27,0.85,0.85,0,0,1,.33.74,0.88,0.88,0,0,1-.7.87v0a0.86,0.86,0,0,1,.6.87,2.9,2.9,0,0,0,.23.88H180a2.57,2.57,0,0,1-.24-0.91A0.67,0.67,0,0,0,179,89h-0.4v1.53Zm0-2H179a0.65,0.65,0,1,0,0-1.24,2.67,2.67,0,0,0-.41,0v1.21Z" transform="translate(-5.3 -6.48)"/></svg>